<!-- NEW -->
<svg width="23" height="23" viewBox="0 0 23 23" fill="none" xmlns="http://www.w3.org/2000/svg">
<path d="M9.24999 20.5H13.75C13.75 21.7426 12.7426 22.75 11.5 22.75C10.2574 22.75 9.24999 21.7426 9.24999 20.5ZM19.24 14.74C18.6069 14.1077 18.2508 13.2498 18.25 12.355V9.25C18.25 7.7895 17.7763 6.3684 16.9 5.2L15.8875 3.85C15.2501 3.00015 14.2498 2.5 13.1875 2.5H12.625V0.8125C12.625 0.50184 12.3732 0.25 12.0625 0.25H10.9375C10.6268 0.25 10.375 0.50184 10.375 0.8125V2.5H9.81249C8.75019 2.5 7.74988 3.00015 7.11249 3.85L6.09999 5.2C5.22369 6.3684 4.74999 7.7895 4.74999 9.25V12.355C4.7492 13.2498 4.39311 14.1077 3.75999 14.74L2.82624 15.6737C2.61841 15.8833 2.50124 16.1661 2.49999 16.4612V17.125C2.49999 17.7463 3.00367 18.25 3.62499 18.25H19.375C19.9963 18.25 20.5 17.7463 20.5 17.125V16.4612C20.4987 16.1661 20.3816 15.8833 20.1737 15.6737L19.24 14.74ZM4.28874 3.86125C4.42295 3.68659 4.39296 3.4367 4.22124 3.29875L3.09624 2.42125C3.00218 2.34303 2.88033 2.30647 2.75874 2.32C2.65223 2.34376 2.55931 2.4084 2.49999 2.5C1.15904 4.2842 0.376155 6.42538 0.249993 8.65375C0.2387 8.80891 0.296313 8.96118 0.407493 9.07C0.510517 9.18519 0.657956 9.25072 0.812493 9.25H1.93749C2.23729 9.24464 2.4824 9.00933 2.49999 8.71C2.61708 6.95526 3.23819 5.27162 4.28874 3.86125ZM20.5 2.5C20.4294 2.39904 20.3187 2.33343 20.1962 2.32C20.0714 2.30835 19.9467 2.34454 19.8475 2.42125L18.7225 3.29875C18.5508 3.4367 18.5208 3.68659 18.655 3.86125C19.7257 5.26523 20.3665 6.94941 20.5 8.71C20.5118 9.00753 20.7535 9.24428 21.0512 9.25H22.1762C22.3302 9.24795 22.4766 9.1829 22.5812 9.07C22.6876 8.95728 22.7479 8.80874 22.75 8.65375C22.6185 6.42647 21.8362 4.28677 20.5 2.5Z" fill="white"/>
</svg>
