<svg width="31" height="31" viewBox="0 0 31 31" fill="none" xmlns="http://www.w3.org/2000/svg">
<g clip-path="url(#clip0_35_805)">
<path d="M6.45834 25.1875C6.45834 25.5442 6.16919 25.8333 5.81251 25.8333H3.22918C2.87249 25.8333 2.58334 25.5442 2.58334 25.1875V13.5625C2.58334 13.2058 2.87249 12.9167 3.22918 12.9167H5.81251C6.16919 12.9167 6.45834 13.2058 6.45834 13.5625V25.1875ZM25.8333 12.9167H19.375L21.3771 8.89958C21.7838 8.10063 21.9837 7.21242 21.9583 6.31625V5.8125C21.9583 4.74245 21.0909 3.875 20.0208 3.875H19.84C19.5647 3.87704 19.321 4.05335 19.2329 4.31417L18.4579 6.61333C18.2175 7.33081 17.6745 7.90679 16.9725 8.18917L16.4171 8.40875C15.4032 8.82433 14.545 9.54705 13.9629 10.4754L12.3871 13.0587C11.914 13.8156 11.0838 14.2747 10.1913 14.2729H9.04168V24.6062H9.80376C10.9624 24.5899 12.0808 25.0308 12.9167 25.8333C13.742 26.6595 14.8617 27.1242 16.0296 27.125H24.0896C25.1435 27.1207 26.0892 26.4767 26.4792 25.4975L27.8613 22.0487C28.2263 21.1322 28.4147 20.1549 28.4167 19.1683V15.5C28.4167 14.0733 27.2601 12.9167 25.8333 12.9167Z" fill="#3AFDB7"/>
</g>
<defs>
<clipPath id="clip0_35_805">
<rect width="31" height="31" fill="white"/>
</clipPath>
</defs>
</svg>
