<!-- NEW -->
<svg width="19" height="19" viewBox="0 0 19 19" fill="none" xmlns="http://www.w3.org/2000/svg">
<path d="M5.00172 5C5.00172 2.51472 7.0172 0.5 9.50342 0.5C11.9896 0.5 14.0051 2.51472 14.0051 5C14.0051 7.48528 11.9896 9.5 9.50342 9.5C8.30949 9.5 7.16447 9.02589 6.32023 8.18198C5.476 7.33807 5.00172 6.19347 5.00172 5ZM18.383 16.8687L16.7624 13.6175C16.1898 12.4709 15.017 11.7475 13.735 11.75H5.27182C3.98984 11.7475 2.81704 12.4709 2.24442 13.6175L0.62381 16.8687C0.448278 17.217 0.465637 17.6312 0.669686 17.9635C0.873735 18.2958 1.23537 18.4988 1.62544 18.5H17.3814C17.7715 18.4988 18.1331 18.2958 18.3372 17.9635C18.5412 17.6312 18.5586 17.217 18.383 16.8687Z" fill="white"/>
</svg>
