<svg width="31" height="31" viewBox="0 0 31 31" fill="none" xmlns="http://www.w3.org/2000/svg">
<path d="M15.5119 6.45847V3.50055C15.5145 3.32542 15.4442 3.15707 15.318 3.03555L15.0594 2.77722C14.938 2.65495 14.7727 2.58618 14.6003 2.58618C14.428 2.58618 14.2627 2.65495 14.1413 2.77722L9.56403 7.3368C9.31605 7.59231 9.31605 7.99837 9.56403 8.25388L14.1413 12.8135C14.2627 12.9357 14.428 13.0045 14.6003 13.0045C14.7727 13.0045 14.938 12.9357 15.0594 12.8135L15.318 12.5551C15.4442 12.4336 15.5145 12.2653 15.5119 12.0901V9.0418C19.7163 9.05416 23.1457 12.4099 23.245 16.6087C23.3443 20.8076 20.0774 24.3213 15.8782 24.532C11.6791 24.7427 8.07617 21.5736 7.75381 17.386C7.72679 17.0496 7.44509 16.7907 7.1073 16.7918H5.81428C5.63348 16.7936 5.46103 16.8681 5.33586 16.9985C5.21831 17.129 5.1578 17.3011 5.16777 17.4764C5.54017 23.0791 10.3231 27.3593 15.9387 27.1153C21.5543 26.8713 25.9471 22.1924 25.8311 16.5786C25.7151 10.9647 21.1328 6.4708 15.5119 6.45847Z" fill="#D49900"/>
</svg>
