<!-- NEW -->
<svg width="25" height="24" viewBox="0 0 25 24" fill="none" xmlns="http://www.w3.org/2000/svg">
<path d="M15.8893 15.9775C18.3769 15.9775 20.3934 13.9657 20.3934 11.484V4.74358C20.3934 2.26184 18.3769 0.25 15.8893 0.25H4.62909C2.14155 0.25 0.125 2.26184 0.125 4.74358V18.786C0.125 19.0962 0.377069 19.3477 0.688012 19.3477C0.83678 19.3469 0.978894 19.2861 1.08212 19.1792L3.33417 16.9324C3.98087 16.3042 4.85267 15.9604 5.75512 15.9775H15.8893ZM22.6455 4.74358V13.7307C22.6455 16.2125 20.6289 18.2243 18.1414 18.2243H4.62909C4.62909 19.4652 5.63737 20.4711 6.88114 20.4711H19.2674C20.1669 20.4689 21.0302 20.8247 21.6658 21.4597L23.9179 23.7065C24.0211 23.8134 24.1632 23.8741 24.312 23.875C24.6229 23.875 24.875 23.6235 24.875 23.3133V6.99037C24.8751 5.75822 23.8804 4.7559 22.6455 4.74358Z" fill="white"/>
</svg>
