<svg width="31" height="37" viewBox="0 0 31 37" fill="none" xmlns="http://www.w3.org/2000/svg">
<g clip-path="url(#clip0_35_208)">
<path d="M15.0724 17.0816C15.33 17.2965 15.4842 17.6471 15.4861 18.022V18.9778C15.4842 19.3528 15.33 19.7033 15.0724 19.9183L5.54297 27.9041C5.22695 28.1417 4.82459 28.1417 4.50857 27.9041L4.35341 27.8116C4.07078 27.6074 3.89154 27.2493 3.875 26.8558V10.1287C3.87605 9.71772 4.05759 9.33747 4.35341 9.12659L4.50857 9.03409C4.82268 8.78877 5.22886 8.78877 5.54297 9.03409L15.0724 17.0816ZM28.0024 17.0816L18.473 9.09575C18.1588 8.85043 17.7527 8.85043 17.4386 9.09575L17.2834 9.18825C16.9876 9.39913 16.806 9.77939 16.805 10.1903V26.8558C16.8086 27.2659 16.9894 27.6448 17.2834 27.8578L17.4386 27.9503C17.7546 28.1879 18.1569 28.1879 18.473 27.9503L28.0024 19.9645C28.26 19.7496 28.4142 19.399 28.4161 19.0241V18.0683C28.4272 17.6771 28.2715 17.3058 28.0024 17.0816Z" fill="url(#paint0_linear_35_208)"/>
</g>
<defs>
<linearGradient id="paint0_linear_35_208" x1="16.1458" y1="8.8501" x2="16.1458" y2="28.1285" gradientUnits="userSpaceOnUse">
<stop stop-color="#FF000F"/>
<stop offset="1" stop-color="#DD00C7"/>
</linearGradient>
<clipPath id="clip0_35_208">
<rect width="31" height="37" fill="white"/>
</clipPath>
</defs>
</svg>
